# xmcd
#
# Track frame offsets:
#	150
#	7990
#	21302
#	33270
#	43307
#	54842
#	68402
#	80922
#	93125
#	104792
#	117395
#	129250
#	142507
#	156812
#	166782
#	176340
#	188662
#	202132
#	213772
#	224942
#
# Disc length: 3175 seconds
#
# Revision: 2
# Processed by: cddbd v1.5.2PL0 Copyright (c) Steve Scherf et al.
# Submitted via: audiograbber 1.83.01
#
DISCID=0f0c6514
DTITLE=Glen Campbell - The Legendary Glen Campbell [CD1]
DYEAR=2011
DGENRE=Country
TTITLE0=Kentucky Means Paradise (featuring The Green River Boys)
TTITLE1=Turn Around, Look At Me
TTITLE2=Too Late To Worry - Too Blue To Cry
TTITLE3=The Universal Soldier
TTITLE4=Burning Bridges
TTITLE5=Gentle On My Mind
TTITLE6=By The Time I Get To Phoenix
TTITLE7=Homeward Bound
TTITLE8=Hey Little One
TTITLE9=I Wanna Live
TTITLE10=Dreams Of The Everyday Housewife
TTITLE11=Mornin' Glory (featuring Bobbie Gentry)
TTITLE12=Wichita Lineman
TTITLE13=Less Of Me (featuring Bobbie Gentry)
TTITLE14=Let It Be Me (featuring Bobbie Gentry)
TTITLE15=Galveston
TTITLE16=Where's The Playground Susie
TTITLE17=True Grit
TTITLE18=Try A Little Kindness
TTITLE19=Honey, Come Back
EXTD=P 2011 EMI Music Special Markets\nC 2011 The Reader's Digest Association, 
EXTD=Inc.\n509990-27061-2-2 SSTC08431
EXTT0=
EXTT1=
EXTT2=
EXTT3=
EXTT4=
EXTT5=
EXTT6=
EXTT7=
EXTT8=
EXTT9=
EXTT10=
EXTT11=
EXTT12=
EXTT13=
EXTT14=
EXTT15=
EXTT16=
EXTT17=
EXTT18=
EXTT19=
PLAYORDER=
